<?xml version="1.0" encoding="utf-8"?>
<!-- Generator: Adobe Illustrator 22.1.0, SVG Export Plug-In . SVG Version: 6.00 Build 0)  -->
<svg version="1.1" id="Capa_1" xmlns="http://www.w3.org/2000/svg" xmlns:xlink="http://www.w3.org/1999/xlink" x="0px" y="0px"
	 viewBox="0 0 612 340.2" style="enable-background:new 0 0 612 340.2;" xml:space="preserve">
<style type="text/css">
	.st0{fill:#003DA6;}
	.st1{fill:#FFFFFF;}
</style>
<g>
	<path class="st0" d="M135.5,161l37.2-5.6l-25-3.8h0.9c5.8-4.2,11.5-8.8,17.5-13.3c-3.3-0.8-6.1-1.5-9-2.2c-1.5-0.4-2-1.3-1.5-2.7
		c0.4-1.3,0.9-2.7,1.3-4c1.1-3.5,2.2-6.9,3.4-10.6c-0.7,0.2-1,0.3-1.3,0.4c-4.4,1.4-8.7,2.8-13.1,4.2c-2,0.6-2.7,0.2-2.7-1.8
		c0-2,0.1-3.9,0.1-5.9c0-1.5,0-2.9,0-4.6c-7,6.8-13.7,13.3-20.9,20.3c2.8-8.8,5.4-17.1,8.1-25.6c-0.4,0.1-0.6,0.1-0.7,0.1
		c-2.3,1.1-4.5,2.1-6.8,3.2c-2.1,1-4.2,2-6.3,2.9c-1.7,0.8-2.4,0.4-3-1.4c-0.5-1.6-1-3.3-1.5-4.9c-1.6-5.1-3.2-10.2-4.9-15.7
		c-0.3,0.8-0.4,1.3-0.6,1.7c-2,6.2-3.9,12.5-5.9,18.7c-0.6,1.9-1.2,2.3-3.1,1.4c-2.7-1.2-5.3-2.5-8-3.7c-1.9-0.9-3.7-1.7-5.9-2.7
		c2.8,8.7,5.4,17.1,8.2,25.7c-7.2-7-14-13.6-20.9-20.2c0,3.2-0.1,6.5,0,9.7c0.1,2.9-0.4,3.2-3.2,2.4c-0.5-0.2-0.9-0.3-1.4-0.5
		c-4-1.3-8.1-2.6-12.4-4c1.6,4.9,3,9.4,4.5,13.9c0.8,2.5,0.5,3.1-2.1,3.7c-2.6,0.6-5.2,1.3-8.1,2c6.2,4.6,12.1,8.9,18,13.3H67
		l-25,3.8l37.2,5.6L47,180.4l36.5-9.1l-22.3,30.3l30.3-22.3l-9.1,36.5l19.4-32.2l5.6,37.2l5.6-37.2l19.4,32.2l-9.1-36.5l30.3,22.3
		l-22.3-30.3l36.5,9.1L135.5,161z"/>
	<path class="st0" d="M107.2,232.1c-42.3,0-76.7-34.4-76.7-76.7c0-42.3,34.4-76.7,76.7-76.7c42.3,0,76.7,34.4,76.7,76.7
		C184,197.7,149.5,232.1,107.2,232.1z M107.2,82.6c-40.2,0-72.8,32.7-72.8,72.8c0,40.2,32.7,72.8,72.8,72.8
		c40.2,0,72.8-32.7,72.8-72.8C180,115.2,147.4,82.6,107.2,82.6z"/>
	<g>
		<path class="st1" d="M107.2,178.2c-5.6,0-11-1.8-14.7-4.9c-3.4-2.8-5.2-6.5-5.1-10.9c0-6.3,0-12.5,0-18.8l0-10.1H127v2.1
			c0,2.6,0,5.2,0,7.8c0,6.2,0,12.6,0,18.9c0,4.6-1.7,8.2-5.4,11.2C117.9,176.5,112.8,178.2,107.2,178.2z M88.4,134.5l0,9.1
			c0,6.3,0,12.5,0,18.8c0,4.1,1.5,7.4,4.8,10.1c3.6,2.9,8.7,4.6,14.1,4.6c5.3,0,10.3-1.6,13.9-4.5c3.4-2.7,5.1-6.1,5-10.4
			c-0.1-6.3-0.1-12.7,0-18.9c0-2.6,0-5.2,0-7.8v-1.1H88.4z"/>
		<path class="st1" d="M92.3,138.5c0.1,1.4,0.8,1.7,1.9,1.7c3.4,0,6.8,0,10.3,0c5.4,0,10.7,0,16.1,0c1.1,0,2-0.2,1.9-1.7
			C112.4,138.5,102.4,138.5,92.3,138.5z"/>
		<path class="st1" d="M94,143.3c9,0,17.8,0,26.7,0c0-0.6,0-1.1,0-1.5c-9,0-17.8,0-26.7,0C94,142.3,94,142.8,94,143.3z"/>
		<path class="st1" d="M104.5,170.7c0-0.4,0.1-0.7,0.1-1c0-7,0-14.1,0-21.1c0-0.3,0.1-0.7-0.1-0.9c-0.2-0.3-0.6-0.6-1-0.7
			c-0.2,0-0.5,0.5-0.6,0.8c-0.1,0.2,0,0.6,0,0.9c0,6.8,0,13.7,0,20.5c0,0.5,0,0.9,0,1.5C103.5,170.7,103.9,170.7,104.5,170.7z"/>
		<path class="st1" d="M115,170.7c0-0.4,0.1-0.6,0.1-0.8c0-7.1,0-14.2,0-21.2c0-0.4,0-0.8-0.2-1.1c-0.1-0.2-0.6-0.5-0.8-0.4
			c-0.2,0-0.5,0.4-0.6,0.6c-0.1,0.3,0,0.7,0,1c0,6.8,0,13.7,0,20.5c0,0.5,0,0.9,0,1.5C114,170.7,114.5,170.7,115,170.7z"/>
		<path class="st1" d="M118,170.7c0-0.3,0.1-0.5,0.1-0.7c0-7.2,0-14.4,0-21.5c0-0.2,0.1-0.5,0-0.7c-0.2-0.3-0.5-0.7-0.8-0.7
			c-0.3,0-0.6,0.4-0.8,0.7c-0.1,0.3-0.1,0.7-0.1,1c0,6.8,0,13.7,0,20.5c0,0.5,0,0.9,0.1,1.5C117.1,170.7,117.5,170.7,118,170.7z"/>
		<path class="st1" d="M98.2,170.7c0-0.3,0.1-0.6,0.1-0.8c0-7.1,0-14.3,0-21.4c0-0.3,0-0.7-0.1-0.9c-0.2-0.3-0.6-0.6-0.9-0.6
			c-0.2,0-0.5,0.4-0.7,0.6c-0.1,0.3,0,0.7,0,1c0,6.9,0,13.8,0,20.6c0,0.4,0,0.9,0.1,1.3C97.2,170.7,97.6,170.7,98.2,170.7z"/>
		<path class="st1" d="M111.8,170.7c0-0.4,0.1-0.5,0.1-0.7c0-7.2,0-14.4,0-21.5c0-0.2,0.1-0.6-0.1-0.7c-0.2-0.3-0.5-0.7-0.8-0.7
			c-0.3,0-0.6,0.4-0.8,0.7c-0.1,0.2-0.1,0.6-0.1,0.9c0,7,0,14,0,21c0,0.4,0.1,0.7,0.1,1.1C110.8,170.7,111.3,170.7,111.8,170.7z"/>
		<path class="st1" d="M101.3,170.6c0-0.4,0.1-0.6,0.1-0.8c0-7.1,0-14.3,0-21.4c0-0.3,0.1-0.6-0.1-0.9c-0.2-0.2-0.5-0.5-0.8-0.5
			c-0.3,0-0.6,0.3-0.7,0.6c-0.1,0.3-0.1,0.7-0.1,1c0,6.9,0,13.8,0,20.7c0,0.4,0,0.9,0.1,1.4C100.4,170.6,100.8,170.6,101.3,170.6z"
			/>
	</g>
	<g>
		<path class="st0" d="M209.6,78.6h40v11.8h-13.5V161h-13V90.4h-13.5V78.6z"/>
		<path class="st0" d="M296,161H283l-2.2-15h-15.9l-2.2,15h-11.9l13.2-82.4h19L296,161z M266.5,134.9H279l-6.2-41.7L266.5,134.9z"/>
		<path class="st0" d="M332.8,137.1l8.8-58.5h18V161h-12.2v-59.1l-8.9,59.1h-12.2l-9.7-58.3V161h-11.3V78.6h18L332.8,137.1z"/>
		<path class="st0" d="M401.1,117.1l-4.7,43.9h-17.8l-9.2-82.4H382l6.9,65l6.2-65h12.5l6.5,65.5l6.7-65.5h11.3l-9.2,82.4h-17.2
			L401.1,117.1z"/>
		<path class="st0" d="M440.8,98.4c0-13.2,6.9-20.7,19.7-20.7s19.7,7.5,19.7,20.7v42.9c0,13.2-6.9,20.7-19.7,20.7
			s-19.7-7.5-19.7-20.7V98.4z M453.8,142.1c0,5.9,2.6,8.1,6.7,8.1s6.7-2.2,6.7-8.1V97.6c0-5.9-2.6-8.1-6.7-8.1s-6.7,2.2-6.7,8.1
			V142.1z"/>
		<path class="st0" d="M490.8,98.4c0-13.2,6.9-20.7,19.7-20.7s19.7,7.5,19.7,20.7v42.9c0,13.2-6.9,20.7-19.7,20.7
			s-19.7-7.5-19.7-20.7V98.4z M503.7,142.1c0,5.9,2.6,8.1,6.7,8.1c4.1,0,6.7-2.2,6.7-8.1V97.6c0-5.9-2.6-8.1-6.7-8.1
			c-4.1,0-6.7,2.2-6.7,8.1V142.1z"/>
		<path class="st0" d="M541.7,78.6h20.5c13,0,19.3,7.2,19.3,20.4v41.7c0,13.2-6.4,20.4-19.3,20.4h-20.5V78.6z M554.7,90.4v58.9h7.3
			c4.1,0,6.6-2.1,6.6-8V98.4c0-5.9-2.5-8-6.6-8H554.7z"/>
	</g>
	<g>
		<path class="st0" d="M302.4,193.7v4h-1.6v-4.1c0-6.3-2.4-11.6-9.2-11.6c-6.9,0-9.3,5.3-9.3,11.6v26.6c0,6.3,2.4,11.5,9.3,11.5
			c6.8,0,9.2-5.2,9.2-11.5v-5.7h1.6v5.6c0,7.2-3,13.2-10.9,13.2c-7.9,0-10.9-5.9-10.9-13.2v-26.5c0-7.2,3-13.2,10.9-13.2
			C299.5,180.5,302.4,186.5,302.4,193.7z"/>
		<path class="st0" d="M320,220.7l-3,12.3h-1.5l12.6-52.1h2.3l12.9,52.1h-1.6l-3-12.3H320z M320.3,219.2h17.9l-9.1-36.4L320.3,219.2
			z"/>
		<path class="st0" d="M366.7,180.9c7.7,0,10.7,4.5,10.7,11.7v4.7c0,6.4-2.5,9.9-8.2,10.9c5.8,0.9,8.2,4.7,8.2,10.4v8.2
			c0,2,0.2,4.5,1.4,6.2H377c-1-1.6-1.3-3.9-1.3-6.2v-8.2c0-7.7-4.6-9.7-11.4-9.7H358v24h-1.6v-52H366.7z M364.4,207.4
			c7.2,0,11.4-1.9,11.4-9.9v-4.8c0-6.3-2.5-10.3-9.1-10.3H358v24.9H364.4z"/>
		<path class="st0" d="M408.9,205.8v1.5h-15.3v24.1h18.2v1.6H392v-52h19.8v1.6h-18.2v23.3H408.9z"/>
		<path class="st0" d="M442,205.8v1.5h-15.3v24.1h18.2v1.6h-19.8v-52h19.8v1.6h-18.2v23.3H442z"/>
		<path class="st0" d="M468.5,180.9c7.7,0,10.7,4.5,10.7,11.7v4.7c0,6.4-2.5,9.9-8.2,10.9c5.8,0.9,8.2,4.7,8.2,10.4v8.2
			c0,2,0.2,4.5,1.4,6.2h-1.8c-1-1.6-1.3-3.9-1.3-6.2v-8.2c0-7.7-4.6-9.7-11.4-9.7h-6.4v24h-1.6v-52H468.5z M466.2,207.4
			c7.2,0,11.4-1.9,11.4-9.9v-4.8c0-6.3-2.5-10.3-9.1-10.3h-8.6v24.9H466.2z"/>
		<path class="st0" d="M515.4,193.5v1h-1.6v-1c0-6.2-2.3-11.4-9.1-11.4c-6.8,0-9.1,5.1-9.1,11.3c0,13.3,19.9,12.9,19.9,27.1
			c0,7.2-3,12.9-10.9,12.9c-7.9,0-10.9-5.7-10.9-12.9v-2.5h1.6v2.6c0,6.3,2.5,11.3,9.3,11.3s9.3-5,9.3-11.3
			c0-13.2-19.9-12.7-19.9-27.1c0-7.6,3.2-12.8,10.7-12.9C512.5,180.5,515.4,186.3,515.4,193.5z"/>
	</g>
</g>
</svg>
